<svg id="Layer_1" data-name="Layer 1" xmlns="http://www.w3.org/2000/svg" viewBox="0 0 512 512"><defs><style>.cls-1{fill:#0b3745;}.cls-2{fill:#02a49a;}.cls-3{fill:#006e78;}.cls-4{fill:#25b6a8;}.cls-5{font-size:98.88px;fill:#fff;font-family:FONTSPRINGDEMO-BrutalistaAltBlackRegular, FONTSPRING DEMO - Brutalista Alt Black;font-weight:800;}.cls-6{letter-spacing:-0.02em;}.cls-7{letter-spacing:-0.01em;}</style></defs><title>Artboard 1</title><polygon class="cls-1" points="299.29 256 160.37 397.63 21.45 256 160.37 114.37 299.29 256"/><polygon class="cls-2" points="492.56 256 291.1 461.39 89.64 256 291.1 50.61 492.56 256"/><polygon class="cls-3" points="160.37 397.63 39.87 256 160.37 114.37 21.45 256 160.37 397.63"/><polygon class="cls-3" points="291.1 461.39 116.35 256 291.1 50.61 89.64 256 291.1 461.39"/><polygon class="cls-4" points="291.1 50.61 116.35 256 291.1 461.39 160.37 256 291.1 50.61"/><text class="cls-5" transform="translate(160.37 292.59) scale(0.98 1)"><tspan class="cls-6">S</tspan><tspan x="63.38" y="0">A</tspan><tspan class="cls-7" x="132.6" y="0">M</tspan><tspan x="217.64" y="0">s</tspan></text></svg>